<svg xmlns="http://www.w3.org/2000/svg" version="1.1" xmlns:xlink="http://www.w3.org/1999/xlink" xmlns:svgjs="http://svgjs.dev/svgjs" width="100%" height="100%" viewBox="0 0 1000 600"><rect width="1000" height="600" x="0" y="0" fill="b"/><g><circle r="166.66666666666666" cx="409.5316721598307" cy="431.75389000709515" fill="blue" transform="matrix(0.5146892396363318,0,0,0.5146892396363317,0,77.7809190904996)"/><path d="M473.7161201396987 431.7113669528962L473.7161201396987 431.7113669528962Q473.7161201396987 448.5512838413779 469.54866596022606 462.4144477445219Q465.3528617523215 476.27761164766594 457.1880535639667 486.143421541928Q449.0232453756119 496.00923143618996 437.05953337739766 501.36738680979784Q425.0958213791834 506.7538922118374 409.64505588385924 506.7538922118374L409.64505588385924 506.7538922118374Q393.40048959244507 506.7538922118374 381.32337748050367 501.36738680979784Q369.274615396994 496.00923143618996 361.30825740766176 486.143421541928Q353.3418994183295 476.27761164766594 349.34454540944745 462.35774768765833Q345.34719140056546 448.46623375608254 345.34719140056546 431.5129167538737L345.34719140056546 431.5129167538737Q345.34719140056546 414.5595997516648 349.34454540944745 400.75313590538434Q353.3418994183295 386.9750220875357 361.30825740766176 377.19426227856906Q369.274615396994 367.41350246960235 381.4367775942308 362.08369712442635Q393.59893979146756 356.7538917792503 409.8435060828818 356.7538917792503L409.8435060828818 356.7538917792503Q425.2942715782059 356.7538917792503 437.144583462693 362.08369712442635Q449.0232453756119 367.41350246960235 457.1880535639667 377.2509623354326Q465.3528617523215 387.060072172831 469.54866596022606 400.8665360191115Q473.7161201396987 414.67299986539194 473.7161201396987 431.7113669528962ZM367.97051408913177 431.7113669528962L367.97051408913177 431.7113669528962Q367.97051408913177 446.85028213547065 370.210166335243 458.78564410525314Q372.478168609786 470.6926560466039 377.4394235853488 478.9141642918222Q382.4290285893433 487.13567253704053 390.3670365502438 491.47322688710403Q398.2766944827125 495.8107812371675 409.64505588385924 495.8107812371675L409.64505588385924 495.8107812371675Q421.01341728500597 495.8107812371675 428.9230752174747 491.47322688710403Q436.86108317837517 487.13567253704053 441.79398812550613 478.9141642918222Q446.72689307263715 470.6926560466039 448.9098452618848 458.78564410525314Q451.0927974511324 446.85028213547065 451.0927974511324 431.7113669528962L451.0927974511324 431.7113669528962Q451.0927974511324 416.5724517703217 448.9098452618848 404.665439828971Q446.72689307263715 392.7300778591885 441.79398812550613 384.56526967083374Q436.86108317837517 376.400461482479 429.03647533120187 372.11960718927907Q421.2118674840285 367.8387528960792 409.8435060828818 367.8387528960792L409.8435060828818 367.8387528960792Q398.475144681735 367.8387528960792 390.5087866924028 372.11960718927907Q382.54242870307047 376.400461482479 377.49612364221235 384.56526967083374Q372.478168609786 392.7300778591885 370.210166335243 404.665439828971Q367.97051408913177 416.5724517703217 367.97051408913177 431.7113669528962Z " fill="white" transform="matrix(0.5146892396363318,0,0,0.5146892396363317,0,77.7809190904996)"/><path d="M782.1309371276704 435.08421156339875L782.1309371276704 435.08421156339875Q782.1309371276704 451.1672436113995 778.1507928329632 464.407315448895Q774.1435727267274 477.6473872863906 766.3457390064846 487.0697696983506Q758.5479052862418 496.4921521103106 747.1219128211638 501.60948048922Q735.6959203560858 506.7538846796579 720.9396030729876 506.7538846796579L720.9396030729876 506.7538846796579Q705.4251630670879 506.7538846796579 693.8908673558955 501.60948048922Q682.3836474562316 496.4921521103106 674.7753444166891 487.0697696983506Q667.1670413771467 477.6473872863906 663.3493519516112 464.3531638258378Q659.5316625260756 451.0860161768136 659.5316625260756 434.8946808826984L659.5316625260756 434.8946808826984Q659.5316625260756 418.7033455885832 663.3493519516112 405.51742537414486Q667.1670413771467 392.3585809712352 674.7753444166891 383.017425993861Q682.3836474562316 373.67627101648685 693.9991706020099 368.5860184491061Q705.6146937477882 363.49576588172545 721.1291337536878 363.49576588172545L721.1291337536878 363.49576588172545Q735.8854510367862 363.49576588172545 747.2031402557496 368.5860184491061Q758.5479052862418 373.67627101648685 766.3457390064846 383.07157761691826Q774.1435727267274 392.43980840582105 778.1507928329632 405.62572862025934Q782.1309371276704 418.8116488346977 782.1309371276704 435.08421156339875ZM681.1381601259151 435.08421156339875L681.1381601259151 435.08421156339875Q681.1381601259151 449.5426949196822 683.2771492366761 460.94161157323157Q685.4432141589657 472.3134524152523 690.1814811764743 480.16543775855234Q694.9468240055115 488.01742310185233 702.5280512335254 492.1600222657313Q710.0822026500106 496.3026214296103 720.9396030729876 496.3026214296103L720.9396030729876 496.3026214296103Q731.7970034959645 496.3026214296103 739.3511549124497 492.1600222657313Q746.9323821404635 488.01742310185233 751.6435733464435 480.16543775855234Q756.3547645524235 472.3134524152523 758.4396020401273 460.94161157323157Q760.5244395278311 449.5426949196822 760.5244395278311 435.08421156339875L760.5244395278311 435.08421156339875Q760.5244395278311 420.62572820711523 758.4396020401273 409.25388736509456Q756.3547645524235 397.8549707115452 751.6435733464435 390.0571369913024Q746.9323821404635 382.25930327105965 739.4594581585642 378.1708557302379Q731.9865341766648 374.0824081894162 721.1291337536878 374.0824081894162L721.1291337536878 374.0824081894162Q710.271733330711 374.0824081894162 702.6634302911685 378.1708557302379Q695.0551272516261 382.25930327105965 690.2356327995316 390.0571369913024Q685.4432141589657 397.8549707115452 683.2771492366761 409.25388736509456Q681.1381601259151 420.62572820711523 681.1381601259151 435.08421156339875ZM824.1255208085612 493.7304193343913L859.5406822879972 493.7304193343913Q862.9522345406034 493.7304193343913 865.199526897479 492.37662875796025Q867.4197434428258 491.0499139930579 868.9089130769 488.8567732592396Q870.3710068994455 486.6907083369499 871.2915844914187 483.7665206918589Q872.1850862718632 480.8694088582965 872.8619815600786 477.72861472097645L872.8619815600786 477.72861472097645L873.8096349635804 473.261105818754L881.9865300452238 473.261105818754L881.0388766417221 504.85857787265445L801.4630665591056 504.85857787265445L801.4630665591056 497.06074415241164L857.9973610308658 411.47410391044144L827.5370730611675 411.47410391044144Q823.7464594471605 411.47410391044144 821.2554847865275 412.47590893700044Q818.791585937423 413.4777139635594 817.221188868763 415.4813240166773Q815.650791800103 417.48493406979526 814.648986773544 420.4361975264149Q813.647181746985 423.3874609830346 812.5912250973688 427.28637784315595L812.5912250973688 427.28637784315595L812.4016944166684 428.0445005659574L804.2247993350251 428.0445005659574L806.1201061420285 400.34594537217833L880.8493459610218 400.34594537217833L880.8493459610218 408.3333097731214L824.1255208085612 493.7304193343913ZM897.4197426165377 496.681682791011L899.9919447117567 496.681682791011Q903.2139662836626 496.681682791011 906.1381539287536 496.2484698065531Q909.035265762316 495.8152568220951 911.2284064961342 494.4885420571927Q913.3944714184239 493.1618272922903 914.6941103717977 490.5354735740141Q915.9666735136428 487.90911985573786 915.9666735136428 483.63114163421574L915.9666735136428 483.63114163421574L915.9666735136428 421.8441397259032Q915.9666735136428 417.5661615043811 914.6941103717977 414.9398077861049Q913.3944714184239 412.3405298793573 911.2284064961342 410.9055118683404Q909.035265762316 409.4704938573235 906.1381539287536 409.01020506133693Q903.2139662836626 408.5228404538218 899.9919447117567 408.5228404538218L899.9919447117567 408.5228404538218L899.4233526696556 408.5228404538218L899.4233526696556 400.34594537217833L934.242846295462 400.34594537217833L934.242846295462 482.68348823071403Q934.242846295462 487.25930037905096 935.5424852488358 490.02103315497027Q936.8150483906809 492.7827659308896 938.9540375014419 494.2448597534351Q941.1201024237316 495.7069535759806 944.0713658803512 496.19431818349585Q946.9955535254422 496.681682791011 950.2446509088768 496.681682791011L950.2446509088768 496.681682791011L952.8168530040958 496.681682791011L952.8168530040958 504.85857787265445L897.4197426165377 504.85857787265445L897.4197426165377 496.681682791011ZM913.2049407377236 368.74847331827783L913.2049407377236 368.74847331827783Q913.2049407377236 365.30984525414306 914.0713667066394 363.0354770857389Q914.9377926755553 360.73403310580613 916.4540381211581 359.32609090631786Q917.9702835667608 357.89107289530097 919.9738936198788 357.3224808531999Q921.9775036729967 356.7538888110989 924.3601750875154 356.7538888110989L924.3601750875154 356.7538888110989Q926.6345432559195 356.7538888110989 928.6381533090374 357.3224808531999Q930.6417633621553 357.89107289530097 932.1038571847008 359.32609090631786Q933.593026818775 360.73403310580613 934.4865285992195 363.0354770857389Q935.4071061911926 365.30984525414306 935.4071061911926 368.74847331827783L935.4071061911926 368.74847331827783Q935.4071061911926 372.1600255708841 934.4865285992195 374.46146955081684Q933.593026818775 376.735837719221 932.1038571847008 378.1708557302379Q930.6417633621553 379.57879792972614 928.6381533090374 380.2015415948845Q926.6345432559195 380.8242852600427 924.3601750875154 380.8242852600427L924.3601750875154 380.8242852600427Q921.9775036729967 380.8242852600427 919.9738936198788 380.2015415948845Q917.9702835667608 379.57879792972614 916.4540381211581 378.1708557302379Q914.9377926755553 376.735837719221 914.0713667066394 374.46146955081684Q913.2049407377236 372.1600255708841 913.2049407377236 368.74847331827783ZM1010.488331560058 506.7538846796579L1010.488331560058 506.7538846796579Q1000.7951910328118 506.7538846796579 992.5912201396396 503.7755454115096Q984.4143250579963 500.7701303318327 978.5117981447569 494.29901137649233Q972.6092712315175 487.827892421152 969.3330980365544 477.6744630979192Q966.0569248415914 467.54810958621505 966.0569248415914 453.1708536645174L966.0569248415914 453.1708536645174Q966.0569248415914 437.5481104125032 969.3330980365544 427.0426955393984Q972.6092712315175 416.5102048547649 978.4576465216996 410.147389145539Q984.3330976234103 403.7574976247845 992.2663104012962 401.1040680949797Q1000.2265989907107 398.45063856517487 1009.4594507219705 398.45063856517487L1009.4594507219705 398.45063856517487Q1015.5515083159102 398.45063856517487 1021.5894142867925 399.6148984609056Q1027.627320257675 400.80623416816485 1032.5009663328265 403.297208828798Q1037.34753659645 405.7611076779025 1040.3800274876553 409.52464548038074Q1043.4395941903895 413.28818328285905 1043.4395941903895 418.3242842271825L1043.4395941903895 418.3242842271825Q1043.4395941903895 425.0932371093377 1039.0533127227532 427.854969885257Q1034.6670312551164 430.6167026611763 1026.0027715659576 430.6167026611763L1026.0027715659576 430.6167026611763Q1026.0027715659576 426.0408905128394 1025.2446488431565 421.9524429720177Q1024.486526120355 417.8639954311959 1022.6453709364088 414.75027710540456Q1020.7771399409339 411.6636345911418 1017.5821941805567 409.90370684178146Q1014.4143242317081 408.1437790924211 1009.4594507219705 408.1437790924211L1009.4594507219705 408.1437790924211Q1003.8276819240172 408.1437790924211 999.3060213987376 410.2286165801249Q994.784360873458 412.3405298793573 991.562339301552 417.48493406979526Q988.3132419181176 422.60226244870455 986.6074657918144 431.2665221378632Q984.9016896655113 439.93078182702186 984.9016896655113 452.9813229838171L984.9016896655113 452.9813229838171Q984.9016896655113 473.7213946147406 991.8060216053096 483.9289755610306Q998.6832777335793 494.109480695792 1014.4143242317081 494.109480695792L1014.4143242317081 494.109480695792Q1023.4576452822673 494.109480695792 1030.1995223528938 490.29179127025645Q1036.968475235049 486.47410184472096 1040.2988000530695 480.49034749689577L1040.2988000530695 480.49034749689577Q1041.7338180640863 481.62753158109786 1042.681471467588 483.52283838810126Q1043.62912487109 485.44522100663335 1043.62912487109 488.0986505364382L1043.62912487109 488.0986505364382Q1043.62912487109 491.42897535445854 1041.5442873833858 494.7593001724789Q1039.4323740841537 498.08962499049926 1035.2897749202748 500.7701303318327Q1031.1471757563954 503.42355986163756 1024.9738907278702 505.1022601764121Q1018.7735298878159 506.7538846796579 1010.488331560058 506.7538846796579ZM1106.6345382981904 496.681682791011L1107.2031303402914 496.681682791011L1107.2031303402914 504.85857787265445L1054.757283409353 504.85857787265445L1054.757283409353 496.681682791011L1056.2735288549557 496.681682791011Q1059.6038536729761 496.681682791011 1062.5280413180672 496.19431818349585Q1065.4251531516297 495.7069535759806 1067.5641422623908 494.2448597534351Q1069.7031313731518 492.7827659308896 1071.0027703265255 490.02103315497027Q1072.2753334683707 487.25930037905096 1072.2753334683707 482.68348823071403L1072.2753334683707 482.68348823071403L1072.2753334683707 378.1708557302379Q1072.2753334683707 373.8658016971872 1071.0027703265255 371.26652379043963Q1069.7031313731518 368.64017007216336 1067.5099906393334 367.2051520611465Q1065.316849905515 365.79720986165825 1062.4197380719525 365.36399687720024Q1059.5226262383903 364.93078389274234 1056.2735288549557 364.93078389274234L1056.2735288549557 364.93078389274234L1054.757283409353 364.93078389274234L1054.757283409353 356.7538888110989L1090.6598094963042 356.7538888110989L1090.6598094963042 399.5878226493769Q1090.6598094963042 402.24125217918174 1090.5515062501895 405.1383640127442Q1090.4702788156037 408.06255165783523 1090.2807481349032 410.5264505069397L1090.2807481349032 410.5264505069397Q1090.0641416426743 413.3694107174449 1089.8746109619742 416.1311434933642L1089.8746109619742 416.1311434933642L1090.8493401770047 416.1311434933642Q1099.5948273007489 398.45063856517487 1119.495548774285 398.45063856517487L1119.495548774285 398.45063856517487Q1127.7807471020433 398.45063856517487 1134.1977144343264 400.67085511052176Q1140.6146817666095 402.91814746739726 1145.0009632342462 407.5210354272628Q1149.3872447018825 412.15099919865696 1151.6616128702867 419.3802408767987Q1153.935981038691 426.6094825549404 1153.935981038691 436.6004570090015L1153.935981038691 436.6004570090015L1153.935981038691 482.68348823071403Q1153.935981038691 487.25930037905096 1155.1002409344214 490.02103315497027Q1156.2374250186235 492.7827659308896 1158.2410350717414 494.2448597534351Q1160.2175693133308 495.7069535759806 1162.9793020892503 496.19431818349585Q1165.7410348651697 496.681682791011 1168.990132248604 496.681682791011L1168.990132248604 496.681682791011L1169.558724290705 496.681682791011L1169.558724290705 504.85857787265445L1135.6598082568717 504.85857787265445L1135.6598082568717 437.5481104125032Q1135.6598082568717 431.18529470327735 1134.5226241726696 426.23042119353977Q1133.3854400884675 421.2755476838022 1130.867389616306 417.8639954311959Q1128.3493391441443 414.4253673670611 1124.2608916033223 412.66543961770077Q1120.1453682509723 410.9055118683404 1114.242841337733 410.9055118683404L1114.242841337733 410.9055118683404Q1108.150783743793 410.9055118683404 1103.7374264646278 413.15280422521596Q1099.2969933739341 415.37302077056285 1096.3998815403716 419.5156199344418Q1093.5027697068094 423.6582190983208 1092.0677516957921 429.5065943885029Q1090.6598094963042 435.38204549021356 1090.6598094963042 442.50298392224084L1090.6598094963042 442.50298392224084L1090.6598094963042 483.63114163421574Q1090.6598094963042 487.90911985573786 1091.9323726381494 490.5354735740141Q1093.2049357799947 493.1618272922903 1095.3980765138126 494.4885420571927Q1097.591217247631 495.8152568220951 1100.4883290811936 496.2484698065531Q1103.4125167262846 496.681682791011 1106.6345382981904 496.681682791011L1106.6345382981904 496.681682791011ZM1277.6995155360164 400.34594537217833L1277.6995155360164 483.63114163421574Q1277.6995155360164 487.90911985573786 1278.9720786778616 490.5354735740141Q1280.2717176312353 493.1618272922903 1282.4648583650537 494.4885420571927Q1284.6309232873432 495.8152568220951 1287.5551109324342 496.2484698065531Q1290.4522227659968 496.681682791011 1293.6742443379026 496.681682791011L1293.6742443379026 496.681682791011L1294.2428363800036 496.681682791011L1294.2428363800036 504.85857787265445L1263.3222596143187 504.85857787265445L1260.7500575190998 489.0463039399399L1259.8024041155982 489.0463039399399Q1256.8511406589782 494.5697694917786 1253.2771335372004 498.0083975559134Q1249.7031264154225 501.4199498085196 1245.7229821207152 503.39648405010894Q1241.7157620144794 505.34594248016964 1237.3294805468427 506.0499135799138Q1232.9431990792064 506.7538846796579 1228.2049320616975 506.7538846796579L1228.2049320616975 506.7538846796579Q1220.4883257760407 506.7538846796579 1214.477495616687 504.5607439458396Q1208.4937412688619 502.39467902355 1204.4052937280399 497.7105636290986Q1200.3168461872183 493.05352404617577 1198.1507812649284 485.82428236803406Q1196.0117921541673 478.5950406898923 1196.0117921541673 468.6040662358313L1196.0117921541673 468.6040662358313L1196.0117921541673 421.8441397259032Q1196.0117921541673 417.5661615043811 1194.7392290123225 414.9398077861049Q1193.4395900589484 412.3405298793573 1191.273525136659 410.9055118683404Q1189.0803844028405 409.4704938573235 1186.1561967577495 409.01020506133693Q1183.259084924187 408.5228404538218 1180.0370633522812 408.5228404538218L1180.0370633522812 408.5228404538218L1179.4684713101801 408.5228404538218L1179.4684713101801 400.34594537217833L1214.3962681821008 400.34594537217833L1214.3962681821008 467.6293370208009Q1214.3962681821008 474.01922854155544 1215.3980732086602 478.974102051293Q1216.3998782352191 483.9289755610306 1218.7283980266802 487.3405278136368Q1221.0569178181418 490.7791558777717 1225.0099863013202 492.539083627132Q1228.963054784499 494.29901137649233 1234.8655816977384 494.29901137649233L1234.8655816977384 494.29901137649233Q1241.3367006530784 494.29901137649233 1245.9395886129441 491.9975673965596Q1250.5695523843383 489.7231992281554 1253.5749674640151 485.5806000642765Q1256.5533067321635 481.43800090039747 1257.9883247431803 475.64377723327266Q1259.4233427541972 469.8224777546192 1259.4233427541972 462.7827667571778L1259.4233427541972 462.7827667571778L1259.4233427541972 422.60226244870455Q1259.4233427541972 418.0535261118963 1258.1237038008235 415.23764171291975Q1256.8511406589782 412.42175731394315 1254.7121515482172 410.95966349139763Q1252.5731624374562 409.4704938573235 1249.6489747923652 409.01020506133693Q1246.7518629588026 408.5228404538218 1243.4215381407826 408.5228404538218L1243.4215381407826 408.5228404538218L1242.8529460986815 408.5228404538218L1242.8529460986815 400.34594537217833L1277.6995155360164 400.34594537217833ZM1378.5027618570712 426.7177858010549L1364.8024012235892 442.12392256084013L1390.7681044795368 480.6798781775961Q1395.8312812353888 488.4777118978389 1400.8132305566546 492.56615943866063Q1405.8222556894498 496.681682791011 1412.374602079376 496.681682791011L1412.374602079376 496.681682791011L1412.943194121477 496.681682791011L1412.943194121477 504.85857787265445L1410.208537157086 504.85857787265445Q1401.7338081486282 504.85857787265445 1396.2374184083178 504.34413745361064Q1390.7681044795368 503.8026212230383 1386.787960184829 501.8531627929775Q1382.7807400785932 499.90370436291687 1379.4504152605732 496.14016656043856Q1376.1200904425527 492.37662875796025 1372.0316429017312 485.9055098026199L1372.0316429017312 485.9055098026199L1352.5099827895956 455.3639943983357L1338.1327268678979 466.03186414061224L1338.1327268678979 483.63114163421574Q1338.1327268678979 487.90911985573786 1339.4323658212716 490.5354735740141Q1340.7049289631168 493.1618272922903 1342.8980696969352 494.4885420571927Q1345.0912104307536 495.8152568220951 1347.9883222643157 496.2484698065531Q1350.8854340978783 496.681682791011 1354.1345314813125 496.681682791011L1354.1345314813125 496.681682791011L1354.7031235234135 496.681682791011L1354.7031235234135 504.85857787265445L1302.2572765924751 504.85857787265445L1302.2572765924751 496.681682791011L1303.7735220380782 496.681682791011Q1307.1038468560982 496.681682791011 1310.0009586896608 496.19431818349585Q1312.9251463347518 495.7069535759806 1315.0641354455129 494.2448597534351Q1317.203124556274 492.7827659308896 1318.4756876981191 490.02103315497027Q1319.7753266514928 487.25930037905096 1319.7753266514928 482.68348823071403L1319.7753266514928 482.68348823071403L1319.7753266514928 378.1708557302379Q1319.7753266514928 373.8658016971872 1318.4756876981191 371.26652379043963Q1317.203124556274 368.64017007216336 1315.0099838224555 367.2051520611465Q1312.8168430886371 365.79720986165825 1309.919731255075 365.36399687720024Q1307.0226194215124 364.93078389274234 1303.7735220380782 364.93078389274234L1303.7735220380782 364.93078389274234L1302.2572765924751 364.93078389274234L1302.2572765924751 356.7538888110989L1338.1327268678979 356.7538888110989L1338.1327268678979 431.9434174260787Q1338.1327268678979 434.59684695588356 1338.051499433312 438.73944611976253Q1337.9431961871974 442.88204528364156 1337.7536655064973 446.88926538987744L1337.7536655064973 446.88926538987744Q1337.5641348257968 451.4650775382143 1337.3746041450963 456.50117848253774L1337.3746041450963 456.50117848253774L1361.742834520855 429.85857993837493Q1364.883628658175 426.33872443965424 1366.9413903343502 423.6582190983208Q1368.972076198997 421.00478956851595 1370.2175635293133 419.001179515398Q1371.4630508596301 416.99756946228007 1371.9233396556165 415.4271723936201Q1372.4107042631317 413.85677532496004 1372.4107042631317 412.42175731394315L1372.4107042631317 412.42175731394315Q1372.4107042631317 409.9578584648387 1370.0821844716702 409.25388736509456Q1367.753664680209 408.5228404538218 1362.880018605057 408.5228404538218L1362.880018605057 408.5228404538218L1362.880018605057 400.34594537217833L1405.9034831240356 400.34594537217833L1405.9034831240356 408.5228404538218Q1399.1616060534088 408.5228404538218 1392.6363354750115 413.28818328285905Q1386.1110648966137 418.0535261118963 1378.5027618570712 426.7177858010549L1378.5027618570712 426.7177858010549ZM1493.3042027384236 400.9145374142793L1505.5695453608887 400.9145374142793L1525.0912054730243 458.69431921635606Q1526.2283895572264 462.21417471507675 1527.5280285106 466.24847063284125Q1528.8005916524453 470.30984236213436 1529.9377757366474 474.262910845313Q1531.0749598208495 478.2159793284916 1532.04968903588 481.73583482721233Q1532.9973424393816 485.255690325933 1533.457631235368 487.7195891750375L1533.457631235368 487.7195891750375L1534.026223277469 487.7195891750375Q1534.8926492463847 482.8730189114144 1536.7879560533884 475.77915629091575Q1538.7103386719205 468.6852936704171 1541.66160212854 459.26291125845705L1541.66160212854 459.26291125845705L1551.3547426557861 427.854969885257Q1552.1128653785877 425.36399522462386 1552.6543816091603 422.575186637176Q1553.168822028204 419.7593022381994 1553.168822028204 418.13475354648216L1553.168822028204 418.13475354648216Q1553.168822028204 413.09865260215867 1549.9738762678267 410.82428443375454Q1546.7789305074493 408.5228404538218 1540.226584117523 408.5228404538218L1540.226584117523 408.5228404538218L1538.899869352621 408.5228404538218L1538.899869352621 400.34594537217833L1580.569543295168 400.34594537217833L1580.569543295168 408.5228404538218L1578.1056444460637 408.5228404538218Q1575.2626842355585 408.5228404538218 1573.1507709363264 409.09143249592285Q1571.0659334486222 409.6600245380239 1569.3872331338475 411.33872485279835Q1567.7356086306022 412.9903493560442 1566.300590619585 415.94161281266383Q1564.865572608568 418.89287626928353 1563.4576304090797 423.76652234443526L1563.4576304090797 423.76652234443526L1538.33127731052 504.85857787265445L1522.7085340585054 504.85857787265445L1499.4774877669488 436.22139564760084L1495.9576322682283 423.3874609830346L1468.3673803205634 504.85857787265445L1452.9341677492498 504.85857787265445L1427.428753289289 418.89287626928353Q1426.291569205087 415.86038537807804 1425.0460818747702 413.85677532496004Q1423.8005945444538 411.85316527184216 1422.1760458527365 410.66182956458283Q1420.578572972548 409.4704938573235 1418.4666596733155 409.01020506133693Q1416.3818221856118 408.5228404538218 1413.5388619751066 408.5228404538218L1413.5388619751066 408.5228404538218L1412.943194121477 408.5228404538218L1412.943194121477 400.34594537217833L1461.1110628308934 400.34594537217833L1461.1110628308934 408.5228404538218L1458.5388607356745 408.5228404538218Q1452.7446370685493 408.5228404538218 1449.7933736119298 410.2286165801249Q1446.8421101553104 411.96146851795663 1446.8421101553104 416.7268113469939L1446.8421101553104 416.7268113469939Q1446.8421101553104 418.3242842271825 1447.356550574354 420.62572820711523Q1447.8980668049262 422.9000963755194 1448.4666588470272 425.0932371093377L1448.4666588470272 425.0932371093377L1457.5912073321724 457.82789324744016Q1458.5388607356745 461.3477487461609 1459.5948173852903 465.5444995330971Q1460.6507740349066 469.7412503200333 1461.5442758153513 473.8838494839123Q1462.4648534073244 478.0264486477913 1463.222976130126 481.62753158109786Q1463.981098852927 485.255690325933 1464.4413876489139 487.7195891750375L1464.4413876489139 487.7195891750375L1465.0370555025434 487.7195891750375Q1465.4973442985297 485.255690325933 1466.3096186443886 481.9524413194413Q1467.121892990247 478.67626812447816 1468.2049254513918 474.9127303219999Q1469.3150337240654 471.1491925195216 1470.5334452428533 467.25027565940024Q1471.7789325731696 463.35135879927884 1473.0244199034864 459.83150330055815L1473.0244199034864 459.83150330055815L1493.3042027384236 400.9145374142793ZM1683.4847029154557 400.34594537217833L1683.4847029154557 483.63114163421574Q1683.4847029154557 487.90911985573786 1684.757266057301 490.5354735740141Q1686.0569050106747 493.1618272922903 1688.250045744493 494.4885420571927Q1690.4431864783114 495.8152568220951 1693.3402983118735 496.2484698065531Q1696.2374101454361 496.681682791011 1699.4865075288703 496.681682791011L1699.4865075288703 496.681682791011L1700.0550995709714 496.681682791011L1700.0550995709714 504.85857787265445L1669.107446993758 504.85857787265445L1666.535244898539 489.0463039399399L1665.5875914950375 489.0463039399399Q1662.6363280384176 494.5697694917786 1659.0623209166397 498.0083975559134Q1655.4883137948618 501.4199498085196 1651.5081695001545 503.39648405010894Q1647.5009493939187 505.34594248016964 1643.114667926282 506.0499135799138Q1638.7554622701741 506.7538846796579 1633.9901194411368 506.7538846796579L1633.9901194411368 506.7538846796579Q1626.27351315548 506.7538846796579 1620.2897588076548 504.5607439458396Q1614.2789286483012 502.39467902355 1610.1904811074792 497.7105636290986Q1606.1020335666576 493.05352404617577 1603.9630444558966 485.82428236803406Q1601.7969795336066 478.5950406898923 1601.7969795336066 468.6040662358313L1601.7969795336066 468.6040662358313L1601.7969795336066 421.8441397259032Q1601.7969795336066 417.5661615043811 1600.5244163917614 414.9398077861049Q1599.2518532499166 412.3405298793573 1597.0587125160982 410.9055118683404Q1594.8655717822799 409.4704938573235 1591.9684599487177 409.01020506133693Q1589.0442723036263 408.5228404538218 1585.8222507317205 408.5228404538218L1585.8222507317205 408.5228404538218L1585.2536586896194 408.5228404538218L1585.2536586896194 400.34594537217833L1620.1814555615401 400.34594537217833L1620.1814555615401 467.6293370208009Q1620.1814555615401 474.01922854155544 1621.183260588099 478.974102051293Q1622.185065614658 483.9289755610306 1624.5135854061195 487.3405278136368Q1626.842105197581 490.7791558777717 1630.7951736807595 492.539083627132Q1634.7482421639384 494.29901137649233 1640.6507690771773 494.29901137649233L1640.6507690771773 494.29901137649233Q1647.1218880325182 494.29901137649233 1651.7247759923835 491.9975673965596Q1656.3547397637776 489.7231992281554 1659.3601548434544 485.5806000642765Q1662.3384941116028 481.43800090039747 1663.7735121226196 475.64377723327266Q1665.2085301336365 469.8224777546192 1665.2085301336365 462.7827667571778L1665.2085301336365 462.7827667571778L1665.2085301336365 422.60226244870455Q1665.2085301336365 418.0535261118963 1663.9088911802628 415.23764171291975Q1662.6363280384176 412.42175731394315 1660.4973389276565 410.95966349139763Q1658.3583498168955 409.4704938573235 1655.461237983333 409.01020506133693Q1652.5370503382424 408.5228404538218 1649.2067255202219 408.5228404538218L1649.2067255202219 408.5228404538218L1648.6381334781208 408.5228404538218L1648.6381334781208 400.34594537217833L1683.4847029154557 400.34594537217833Z " fill="white" transform="matrix(0.5146892396363318,0,0,0.5146892396363317,0,77.7809190904996)"/></g></svg>